<?xml version="1.0" encoding="utf-8"?>
<!-- Generator: Adobe Illustrator 18.1.1, SVG Export Plug-In . SVG Version: 6.00 Build 0)  -->
<svg version="1.1" id="Layer_1" xmlns="http://www.w3.org/2000/svg" xmlns:xlink="http://www.w3.org/1999/xlink" x="0px" y="0px"
	 viewBox="0 0 62 57.5" enable-background="new 0 0 62 57.5" xml:space="preserve">
<path fill="#FFFFFF" d="M54.2,31.4c-0.7-7.3-4.9-13.7-10.7-17.5c-0.6-0.4-0.9-1-0.9-1.6l0,0c0-5.9-4.1-11.1-9.9-12.1
	c-7.5-1.2-13.9,4.5-13.9,11.8l0,0c0,0.8-0.4,1.6-1.1,2.1C11.7,17.9,7.6,24.4,7,31.8c-0.1,0.8-0.5,1.4-1.2,1.8c-4,2.4-6.4,7-5.7,12.1
	c0.7,4.9,4.6,8.9,9.5,9.9c2.7,0.5,5.2,0.1,7.4-0.9c0.7-0.3,1.6-0.4,2.3,0c3.4,1.8,7.2,2.9,11.3,2.9c4.2,0,8.2-1.1,11.7-3.1
	c0.7-0.4,1.6-0.4,2.3,0c2.2,1.2,4.9,1.6,7.6,1.2c5-0.9,9-5,9.7-10.1c0.7-5.3-2.1-10.1-6.4-12.3C54.8,32.9,54.3,32.2,54.2,31.4z
	 M22.7,11.5C22.9,7.3,26.4,4,30.6,4c4.2,0,7.7,3.3,7.9,7.5c0,0.1,0,0.3,0,0.4c0,1.3-0.3,2.5-0.8,3.5c-1.3,2.6-4,4.4-7.1,4.4
	c-3.1,0-5.8-1.8-7.1-4.4c-0.5-1.1-0.8-2.3-0.8-3.5C22.7,11.8,22.7,11.6,22.7,11.5z M18,48.9c-0.9,1.1-2.1,1.9-3.4,2.4
	c-1.5,0.5-3.1,0.7-4.9,0.2c-2.9-0.8-5.2-3.3-5.6-6.3c-0.5-3.1,0.8-6,3.1-7.7c1.1-0.8,2.4-1.4,3.8-1.5c0.3,0,0.6-0.1,0.9-0.1
	c4.4,0,7.9,3.6,7.9,7.9C19.8,45.8,19.2,47.6,18,48.9z M41.5,35.6c-3.6,3.8-3.3,8.3-3.3,8.3c0,1.8,0.4,3.4,1.1,4.9
	c0.6,1.3,0.1,2.8-1.2,3.3c-2.3,0.9-4.8,1.5-7.4,1.5c-2.3,0-4.6-0.4-6.7-1.2c-1.3-0.5-2-2-1.3-3.3c0.8-1.6,1.2-3.4,1.2-5.2
	c0.1-6.1-4.7-9.5-4.7-9.5c-1.9-1.5-4-2.1-5.6-2.3c-1.4-0.2-2.4-1.6-2-3c1-4,3.2-7.6,6.3-10.2c1.1-0.9,2.6-0.7,3.5,0.4
	c2.2,2.8,5.6,4.5,9.3,4.5c3.8,0,7.1-1.8,9.3-4.5c0.9-1.1,2.5-1.3,3.5-0.4c3.1,2.6,5.3,6.2,6.3,10.3c0.3,1.4-0.6,2.7-1.9,2.9
	C46.1,32.5,43.6,33.4,41.5,35.6z M51.2,51.7c-1.6,0.2-3,0-4.3-0.6c-1.3-0.6-2.3-1.5-3.1-2.6c-1-1.3-1.5-2.9-1.5-4.7
	c0-4.4,3.6-7.9,7.9-7.9c0,0,0.1,0,0.1,0c1.4,0,2.7,0.4,3.9,1.1c2.7,1.6,4.3,4.6,3.8,8C57.4,48.5,54.6,51.2,51.2,51.7z"/>
</svg>
