<?xml version="1.0" encoding="utf-8"?>
<!-- Generator: Adobe Illustrator 18.1.1, SVG Export Plug-In . SVG Version: 6.00 Build 0)  -->
<svg version="1.1" id="Layer_1" xmlns="http://www.w3.org/2000/svg" xmlns:xlink="http://www.w3.org/1999/xlink" x="0px" y="0px"
	 viewBox="0 0 58.6 58.6" enable-background="new 0 0 58.6 58.6" xml:space="preserve">
<g>
	<path fill="#FFFFFF" stroke="#FFFFFF" stroke-miterlimit="10" d="M57.7,28.3c-0.1-0.1-0.2-0.2-0.4-0.2l-10-4.8
		c-1.2-0.6-1.9-2-1.7-3.3l1.1-6.7c0.1-0.4-0.1-0.7-0.3-1c-0.3-0.3-0.6-0.4-1-0.3l-6.7,1.1c-1.3,0.2-2.7-0.4-3.3-1.6L30.1,1.3
		c-0.1-0.2-0.2-0.5-0.5-0.6c-0.5-0.3-1.1-0.2-1.5,0.2C28.1,1,28.1,1.1,28,1.3l-4.8,10c-0.6,1.2-2,2-3.3,1.7l-6.6-1.1
		c-0.4-0.1-0.7,0.1-1,0.3c-0.3,0.3-0.4,0.6-0.3,1l1.1,6.7c0.2,1.3-0.4,2.7-1.6,3.3L1.3,28.5c-0.2,0.1-0.5,0.2-0.6,0.5
		c-0.3,0.5-0.2,1.1,0.2,1.4c0.1,0.1,0.2,0.2,0.4,0.2l10,4.8c1.2,0.6,2,2,1.7,3.3l-1.1,6.7c-0.1,0.4,0.1,0.7,0.3,1
		c0.3,0.3,0.6,0.4,1,0.3l6.7-1.1c1.3-0.2,2.7,0.4,3.3,1.6l5.2,10.1c0.1,0.2,0.2,0.5,0.5,0.6c0.2,0.1,0.4,0.2,0.6,0.2
		c0.3,0,0.6-0.1,0.8-0.4c0.1-0.1,0.2-0.2,0.2-0.4l4.8-10c0.6-1.2,2-1.9,3.3-1.7l6.7,1.1c0.1,0,0.1,0,0.2,0c0.3,0,0.6-0.1,0.8-0.3
		c0.3-0.3,0.4-0.6,0.3-1l-1.1-6.7c-0.2-1.3,0.4-2.7,1.6-3.3l10.1-5.2c0.2-0.1,0.5-0.2,0.6-0.5C58.2,29.2,58.1,28.6,57.7,28.3z
		 M43.4,34.8c-0.4,0.2-0.7,0.7-0.6,1.2l1,6.2c0.2,1-0.7,1.9-1.7,1.7l-6.2-1c0,0,0,0,0,0c-0.5-0.1-1,0.1-1.2,0.6l-4,8.3
		c-0.5,1.1-2.1,1.1-2.6,0l-4.4-8.4c-0.2-0.4-0.7-0.7-1.2-0.6l-6.2,1c-1,0.2-1.9-0.7-1.7-1.7l1-6c0.2-0.5,0-1.1-0.6-1.3l-8.4-4
		c-1.1-0.5-1.1-2.1,0-2.6l8.4-4.4c0.4-0.2,0.7-0.7,0.6-1.2l-1-6.2c-0.2-1,0.7-1.9,1.7-1.7l6.2,1c0,0,0,0,0,0c0.1,0,0.3,0,0.4,0
		c0,0,0,0,0.1,0c0.1,0,0.2-0.1,0.3-0.2c0,0,0,0,0.1,0c0.1-0.1,0.2-0.1,0.2-0.2c0,0,0.1-0.1,0.1-0.1c0,0,0,0,0-0.1l4-8.4
		c0.5-1.1,2.1-1.1,2.6,0l4.4,8.4c0.2,0.4,0.7,0.7,1.2,0.6l6.2-1c1-0.2,1.9,0.7,1.7,1.7l-1,6.2c0,0,0,0.1,0,0.1c0,0.1,0,0.2,0,0.2
		c0,0.1,0,0.1,0,0.2c0,0.1,0.1,0.2,0.1,0.3c0,0,0,0,0,0.1c0.1,0.1,0.2,0.2,0.3,0.3c0,0,0,0,0,0c0,0,0.1,0.1,0.1,0.1l8.3,4
		c1.1,0.5,1.1,2.1,0,2.6L43.4,34.8z"/>
	<path fill="#FFFFFF" stroke="#FFFFFF" stroke-miterlimit="10" d="M31,21.4c-5.5-1.1-10.3,3.7-9.2,9.2c0.6,3.1,3.1,5.6,6.2,6.2
		c5.5,1.1,10.3-3.7,9.2-9.2C36.6,24.5,34.1,22,31,21.4z M30.8,34.6c-4.1,0.9-7.6-2.7-6.7-6.7c0.5-2.1,2.1-3.7,4.2-4.2
		c4.1-0.9,7.7,2.7,6.7,6.7C34.5,32.5,32.8,34.1,30.8,34.6z"/>
</g>
</svg>
