<?xml version="1.0" encoding="utf-8"?>
<!-- Generator: Adobe Illustrator 18.1.1, SVG Export Plug-In . SVG Version: 6.00 Build 0)  -->
<svg version="1.1" id="Layer_1" xmlns="http://www.w3.org/2000/svg" xmlns:xlink="http://www.w3.org/1999/xlink" x="0px" y="0px"
	 viewBox="0 0 381.1 255.6" enable-background="new 0 0 381.1 255.6" xml:space="preserve">
<path opacity="0.6" fill="#0296A6" d="M366.1,107.6L247.2,9.7c-8.2-6.7-20.2-5.6-27,2.6c-6.7,8.2-5.6,20.3,2.6,27.1l84.1,69.4H27.2
	c-10.6,0-19.2,8.9-19.2,19.5c0,10.6,8.6,19.5,19.2,19.5h271.5l-76.6,69.5c-7.8,7.1-8.4,19-1.2,26.8c3.8,4.1,9,6.1,14.2,6.1
	c4.6,0,9.2-1.7,12.9-5.1l118.9-108.6c4.1-3.7,6.4-9.1,6.2-14.6C372.9,116.4,370.4,111.2,366.1,107.6z"/>
</svg>
