<?xml version="1.0" encoding="utf-8"?>
<!-- Generator: Adobe Illustrator 18.1.1, SVG Export Plug-In . SVG Version: 6.00 Build 0)  -->
<svg version="1.1" id="Layer_1" xmlns="http://www.w3.org/2000/svg" xmlns:xlink="http://www.w3.org/1999/xlink" x="0px" y="0px"
	 viewBox="0 0 48 56" enable-background="new 0 0 48 56" xml:space="preserve">
<path fill="#FFFFFF" d="M44.1,0H9.2C6.9,0,5,1.9,5,4.2v3.7C5,9.1,4.1,10,2.9,10H2.1c-1,0-1.9,0.7-2.1,1.7C-0.2,12.9,0.8,14,2,14h0.9
	C4.1,14,5,14.9,5,16.1v8.8C5,26.1,4.1,27,2.9,27H2.1c-1,0-1.9,0.7-2.1,1.7C-0.2,29.9,0.8,31,2,31h0.9C4.1,31,5,31.9,5,33.1v7.8
	C5,42.1,4.1,43,2.9,43H2.1c-1,0-1.9,0.7-2.1,1.7C-0.2,45.9,0.8,47,2,47h0.9C4.1,47,5,47.9,5,49.1v2.9C5,54.2,6.8,56,8.9,56h35.1
	c2.2,0,3.9-1.8,3.9-3.9V3.9C48,1.8,46.2,0,44.1,0z M44,50.6c0,0.8-0.6,1.4-1.4,1.4H10.7C9.8,52,9,51.2,9,50.3v-1.2
	c0-1.2,0.9-2.1,2.1-2.1h0.8c1,0,1.9-0.7,2.1-1.7c0.2-1.3-0.8-2.3-2-2.3h-0.9C9.9,43,9,42.1,9,40.9v-7.8c0-1.2,0.9-2.1,2.1-2.1h0.8
	c1,0,1.9-0.7,2.1-1.7c0.2-1.3-0.8-2.3-2-2.3h-0.9C9.9,27,9,26.1,9,24.9v-8.8c0-1.2,0.9-2.1,2.1-2.1l0.8,0c1,0,1.9-0.7,2.1-1.7
	c0.2-1.3-0.8-2.3-2-2.3h-0.9C9.9,10,9,9.1,9,7.9V5.6C9,4.7,9.7,4,10.6,4h31.8C43.3,4,44,4.7,44,5.6V50.6z"/>
</svg>
