<?xml version="1.0" encoding="utf-8"?>
<!-- Generator: Adobe Illustrator 18.1.1, SVG Export Plug-In . SVG Version: 6.00 Build 0)  -->
<svg version="1.1" id="Layer_1" xmlns="http://www.w3.org/2000/svg" xmlns:xlink="http://www.w3.org/1999/xlink" x="0px" y="0px"
	 viewBox="0 0 200 74" enable-background="new 0 0 200 74" xml:space="preserve">
<g>
	<g opacity="0.3">
		
			<image overflow="visible" enable-background="new    " width="260" height="121" xlink:href="33B565AB223FB322.png"  transform="matrix(0.9629 0 0 0.9629 -25.0361 -21.2732)">
		</image>
	</g>
	<g>
		<path fill="#FFFFFF" d="M88.5,37c0-12.6-9-22.9-20-22.9l0,0l0,0l0,0c-10.9,0-19.8,10-20,22.4c0,0.2,0,0.3,0,0.5c0,0.2,0,0.3,0,0.5
			c0.2,12.4,9.1,22.4,20,22.4l0,0l0,0l0,0C79.5,59.9,88.5,49.7,88.5,37L88.5,37L88.5,37z M68.5,50.5L68.5,50.5L68.5,50.5
			c-6,0-10.7-6.1-10.7-13.6s4.8-13.6,10.7-13.6S79.2,29.4,79.2,37C79.2,44.5,74.4,50.5,68.5,50.5z"/>
		<path fill="#FFFFFF" d="M135.8,15.5c-1.8-1.8-4.7-1.8-6.5,0c-0.2,0.2-0.3,0.4-0.5,0.6l-8.3,9.8c-1.7,2.1-5,2.1-6.7,0L105,15.5
			c-1.8-1.8-4.7-1.8-6.5,0c-1.8,1.8-1.8,4.7,0,6.5l11.2,13.3c1.8,2.2,2.9,4.9,2.9,7.8v11.9c0,2.6,1.9,4.8,4.5,4.9
			c2.6,0.1,4.8-2,4.8-4.6V43.1c0-2.9,1-5.6,2.9-7.8L135.8,22c0.4-0.4,0.6-0.7,0.9-1.2c0.7-1.3,0.7-3,0-4.3
			C136.4,16.2,136.1,15.8,135.8,15.5z"/>
		<path fill="#FFFFFF" d="M29.9,14.1c-2.6,0-4.6,2.1-4.6,4.6V37l0,0l0,0c0,7.5-4.8,13.6-10.7,13.6l0,0c-2.6,0-4.6,2.1-4.6,4.6
			c0,2.6,2.1,4.6,4.6,4.6l0,0l0,0c11,0,19.9-10.1,20-22.6c0-0.1,0-0.2,0-0.2V18.8C34.6,16.2,32.5,14.1,29.9,14.1z"/>
		<path fill="#FFFFFF" d="M185.6,14.1c-2.6-0.1-4.8,2-4.8,4.6v15.5c0,2.8-3.5,4-5.3,1.9l-17-20.2l0,0c-0.9-1.2-2.2-1.9-3.8-1.9
			c-2.6,0-4.6,2.1-4.6,4.6l0,0v36.2c0,2.5,1.9,4.8,4.5,4.8c2.6,0.1,4.8-2,4.8-4.6V39.6c0-2.8,3.5-4,5.3-1.9l17,20.2l0,0
			c0.9,1.2,2.2,1.9,3.8,1.9c2.6,0,4.6-2.1,4.6-4.6l0,0V18.9C190.1,16.4,188.1,14.2,185.6,14.1z"/>
	</g>
</g>
</svg>
