<?xml version="1.0" encoding="utf-8"?>
<!-- Generator: Adobe Illustrator 18.1.1, SVG Export Plug-In . SVG Version: 6.00 Build 0)  -->
<svg version="1.1" id="Layer_1" xmlns="http://www.w3.org/2000/svg" xmlns:xlink="http://www.w3.org/1999/xlink" x="0px" y="0px"
	 viewBox="0 0 337.8 135.8" enable-background="new 0 0 337.8 135.8" xml:space="preserve">
<g>
	<path fill="#FFFFFF" d="M149.4,67.9c0-17.9-12.8-32.4-28.3-32.4l0,0l0,0l0,0c-15.4,0-28.1,14.2-28.3,31.7c0,0.3,0,0.4,0,0.7
		c0,0.3,0,0.4,0,0.7c0.3,17.6,12.9,31.7,28.3,31.7l0,0l0,0l0,0C136.6,100.3,149.4,85.9,149.4,67.9L149.4,67.9L149.4,67.9z M121,87
		L121,87L121,87c-8.5,0-15.2-8.6-15.2-19.3s6.8-19.3,15.2-19.3s15.2,8.6,15.2,19.4C136.2,78.5,129.4,87,121,87z"/>
	<path fill="#FFFFFF" d="M216.4,37.4c-2.6-2.6-6.7-2.6-9.2,0c-0.3,0.3-0.4,0.6-0.7,0.9l-11.8,13.9c-2.4,3-7.1,3-9.5,0l-12.5-14.7
		c-2.6-2.6-6.7-2.6-9.2,0c-2.6,2.6-2.6,6.7,0,9.2l15.9,18.8c2.6,3.1,4.1,6.9,4.1,11.1v16.9c0,3.7,2.7,6.8,6.4,6.9
		c3.7,0.1,6.8-2.8,6.8-6.5V76.5c0-4.1,1.4-7.9,4.1-11.1l15.6-18.8c0.6-0.6,0.9-1,1.3-1.7c1-1.8,1-4.3,0-6.1
		C217.2,38.4,216.8,37.9,216.4,37.4z"/>
	<path fill="#FFFFFF" d="M66.4,35.5c-3.7,0-6.5,3-6.5,6.5v25.9l0,0l0,0c0,10.6-6.8,19.3-15.2,19.3l0,0c-3.7,0-6.5,3-6.5,6.5
		c0,3.7,3,6.5,6.5,6.5l0,0l0,0c15.6,0,28.2-14.3,28.3-32c0-0.1,0-0.3,0-0.3V42.1C73,38.4,70,35.5,66.4,35.5z"/>
	<path fill="#FFFFFF" d="M287,35.5c-3.7-0.1-6.8,2.8-6.8,6.5v22c0,4-5,5.7-7.5,2.7L248.6,38l0,0c-1.3-1.7-3.1-2.7-5.4-2.7
		c-3.7,0-6.5,3-6.5,6.5l0,0v51.3c0,3.5,2.7,6.8,6.4,6.8c3.7,0.1,6.8-2.8,6.8-6.5V71.6c0-4,5-5.7,7.5-2.7l24.1,28.6l0,0
		c1.3,1.7,3.1,2.7,5.4,2.7c3.7,0,6.5-3,6.5-6.5l0,0V42.3C293.3,38.7,290.5,35.6,287,35.5z"/>
</g>
</svg>
