<?xml version="1.0" encoding="utf-8"?>
<!-- Generator: Adobe Illustrator 18.1.1, SVG Export Plug-In . SVG Version: 6.00 Build 0)  -->
<svg version="1.1" id="Layer_1" xmlns="http://www.w3.org/2000/svg" xmlns:xlink="http://www.w3.org/1999/xlink" x="0px" y="0px"
	 viewBox="0 0 22.3 14.3" enable-background="new 0 0 22.3 14.3" xml:space="preserve">
<g>
	<path fill="#FFFFFF" d="M20.8,2.4H1.5c-0.6,0-1.1-0.5-1.1-1.1V1.1C0.4,0.5,0.9,0,1.5,0l19.3,0c0.6,0,1.1,0.5,1.1,1.1v0.2
		C21.9,1.9,21.4,2.4,20.8,2.4z"/>
	<path fill="#FFFFFF" d="M20.8,8.3H1.5c-0.6,0-1.1-0.5-1.1-1.1V7C0.4,6.4,0.9,6,1.5,6h19.3c0.6,0,1.1,0.5,1.1,1.1v0.2
		C21.9,7.9,21.4,8.3,20.8,8.3z"/>
	<path fill="#FFFFFF" d="M20.8,14.3H1.5c-0.6,0-1.1-0.5-1.1-1.1V13c0-0.6,0.5-1.1,1.1-1.1h19.3c0.6,0,1.1,0.5,1.1,1.1v0.2
		C21.9,13.8,21.4,14.3,20.8,14.3z"/>
</g>
</svg>
