<?xml version="1.0" encoding="utf-8"?>
<!-- Generator: Adobe Illustrator 18.1.1, SVG Export Plug-In . SVG Version: 6.00 Build 0)  -->
<svg version="1.1" id="Layer_1" xmlns="http://www.w3.org/2000/svg" xmlns:xlink="http://www.w3.org/1999/xlink" x="0px" y="0px"
	 viewBox="0 0 60 16.7" enable-background="new 0 0 60 16.7" xml:space="preserve">
<g>
	<path fill="#FFFFFF" stroke="#FFFFFF" stroke-miterlimit="10" d="M9,1.4c-5-1-9.3,3.4-8.4,8.4c0.5,2.8,2.8,5,5.6,5.6
		c5,1,9.3-3.4,8.4-8.4C14.1,4.2,11.8,1.9,9,1.4z M8.8,13.3c-3.7,0.8-6.9-2.4-6.1-6.1c0.4-1.9,1.9-3.4,3.8-3.8
		c3.7-0.8,6.9,2.4,6.1,6.1C12.1,11.4,10.6,12.9,8.8,13.3z"/>
	<path fill="#FFFFFF" stroke="#FFFFFF" stroke-miterlimit="10" d="M31.4,1.4c-5-1-9.3,3.4-8.4,8.4c0.5,2.8,2.8,5,5.6,5.6
		c5,1,9.3-3.4,8.4-8.4C36.4,4.2,34.2,1.9,31.4,1.4z M31.2,13.3c-3.7,0.8-6.9-2.4-6.1-6.1c0.4-1.9,1.9-3.4,3.8-3.8
		c3.7-0.8,6.9,2.4,6.1,6.1C34.5,11.4,33,12.9,31.2,13.3z"/>
	<path fill="#FFFFFF" stroke="#FFFFFF" stroke-miterlimit="10" d="M53.8,1.4c-5-1-9.3,3.4-8.4,8.4c0.5,2.8,2.8,5,5.6,5.6
		c5,1,9.3-3.4,8.4-8.4C58.8,4.2,56.6,1.9,53.8,1.4z M53.5,13.3c-3.7,0.8-6.9-2.4-6.1-6.1c0.4-1.9,1.9-3.4,3.8-3.8
		c3.7-0.8,6.9,2.4,6.1,6.1C56.9,11.4,55.4,12.9,53.5,13.3z"/>
</g>
</svg>
