<?xml version="1.0" encoding="utf-8"?>
<!-- Generator: Adobe Illustrator 18.1.1, SVG Export Plug-In . SVG Version: 6.00 Build 0)  -->
<svg version="1.1" id="Layer_1" xmlns="http://www.w3.org/2000/svg" xmlns:xlink="http://www.w3.org/1999/xlink" x="0px" y="0px"
	 viewBox="0 0 57.5 55.8" enable-background="new 0 0 57.5 55.8" xml:space="preserve">
<path fill="#FFFFFF" d="M44.7,55.6l-13.6-7.5c-1.3-0.7-2.9-0.7-4.3,0l-14.1,7.5c-1.4,0.7-3-0.4-2.8-2l2.5-16
	c0.2-1.4-0.2-2.8-1.2-3.8L0.5,22.4c-1.1-1.2-0.4-3.1,1.2-3.2l14.1-1.4c1.5-0.2,2.8-1,3.5-2.3l8-14.4C28-0.3,30-0.3,30.7,1l7.5,14.3
	c0.7,1.3,2,2.2,3.5,2.4l14,1.4c1.6,0.2,2.3,2.1,1.2,3.3L45.8,33.7c-1,1-1.5,2.5-1.2,4l2.9,15.9C47.8,55.2,46.1,56.4,44.7,55.6z
	 M9,25.3l6.4,6.8c1,1.1,1.5,2.6,1.3,4.1l-1.5,10.1c-0.2,1.4,1.2,2.4,2.5,1.8l9-4.8c1.5-0.8,3.2-0.8,4.7,0l8,4.4
	c1.3,0.7,2.8-0.4,2.5-1.8l-1.7-9.5c-0.3-1.6,0.2-3.2,1.3-4.4l6.7-6.8c1-1,0.4-2.7-1-2.9l-7.6-0.8c-1.7-0.2-3.1-1.2-3.9-2.6l-5.2-9.8
	c-0.6-1.2-2.3-1.2-3,0l-5.5,9.9c-0.8,1.4-2.2,2.4-3.8,2.5l-8,0.8C8.7,22.6,8.1,24.3,9,25.3z"/>
</svg>
