<?xml version="1.0" encoding="utf-8"?>
<!-- Generator: Adobe Illustrator 18.1.1, SVG Export Plug-In . SVG Version: 6.00 Build 0)  -->
<svg version="1.1" id="Layer_1" xmlns="http://www.w3.org/2000/svg" xmlns:xlink="http://www.w3.org/1999/xlink" x="0px" y="0px"
	 viewBox="0 0 44 44" enable-background="new 0 0 44 44" xml:space="preserve">
<g>
	<g>
		<path fill="#FFFFFF" d="M17,34.1c-9.4,0-17-7.6-17-17S7.6,0,17,0s17,7.6,17,17S26.4,34.1,17,34.1z M17.2,3C9.4,3,3,9.4,3,17.2
			s6.3,14.1,14.1,14.1s14.1-6.3,14.1-14.1S24.9,3,17.2,3z"/>
	</g>
	<g>
		<path fill="#FFFFFF" d="M38.7,44c-0.3,0-0.7-0.1-0.9-0.4L26,31.8c-0.5-0.5-0.5-1.3,0-1.9l3.9-3.9c0.5-0.5,1.3-0.5,1.9,0l11.8,11.8
			c0.5,0.5,0.5,1.3,0,1.9l-3.9,3.9C39.4,43.9,39.1,44,38.7,44z M28.8,30.8l10,10l2.1-2.1l-10-10L28.8,30.8z"/>
	</g>
</g>
</svg>
