<?xml version="1.0" encoding="utf-8"?>
<!-- Generator: Adobe Illustrator 18.1.1, SVG Export Plug-In . SVG Version: 6.00 Build 0)  -->
<svg version="1.1" id="Layer_1" xmlns="http://www.w3.org/2000/svg" xmlns:xlink="http://www.w3.org/1999/xlink" x="0px" y="0px"
	 viewBox="0 0 60 59" enable-background="new 0 0 60 59" xml:space="preserve">
<g>
	<g>
		<g>
			<g>
				<g>
					<path fill="#FFFFFF" d="M58.8,30.1v-3c0-2.5-1.6-4.6-4-5.1l-2-0.4c-0.7-0.1-0.9-0.7-1.1-1c-0.2-0.5-0.1-1.1,0.2-1.6l0.9-1.3
						c1.5-2.2,1.2-5.2-0.7-7.1l-3.4-3.4c-0.9-0.9-2.1-1.4-3.4-1.4c-0.9,0-1.9,0.3-2.6,0.8l-1.8,1.2c-0.4,0.3-1,0.3-1.6,0.1
						c-0.5-0.2-0.9-1.7-1-2.2l-0.3-1.1c-0.5-2.3-2.4-3.6-5.1-3.6h-3v3l3.4,0c0.6,0,1.6,0,1.8,1.1l0.7,4.3c0.1,0.3,0.2,0.7,1,1
						l0.2,0.1c0.9,0.3,1.8,0.6,2.7,1c0.5,0.2,1.1,0.2,1.5-0.1l2.7-1.8c1.1-0.7,2.3-0.7,3,0.1l3.4,3.4c0.7,0.7,0.8,1.9,0.3,2.7l-2,3
						c-0.3,0.4-0.3,1,0,1.6c0.5,0.9,0.9,1.9,1.2,2.8c0.2,0.5,0.7,0.9,1.3,1l2.8,0.6c1.2,0.2,1.9,1,1.9,2.2v3"/>
				</g>
			</g>
			<g>
				<g>
					<path fill="#FFFFFF" d="M4.2,30.1v-3c0-1.1,0.7-1.9,1.9-2.2l2.8-0.6c0.6-0.1,1.1-0.6,1.3-1c0.3-1,0.8-1.9,1.2-2.8
						c0.3-0.5,0.2-1.1,0-1.6l-2-3c-0.6-0.9-0.5-2,0.3-2.7l3.4-3.4c0.7-0.7,2-0.8,3-0.1l2.7,1.8c0.5,0.3,1.1,0.4,1.5,0.1
						c0.9-0.4,1.8-0.7,2.7-1l0.2-0.1c0.8-0.3,1-0.7,1-1L25,5.2c0.2-1.1,1.2-1.1,1.8-1.1l3.4,0v-3h-3c-2.7,0-4.6,1.3-5.1,3.6
						l-0.3,1.1c-0.1,0.6-0.5,2-1,2.2c-0.5,0.2-1.1,0.2-1.6-0.1l-1.8-1.2c-0.8-0.5-1.7-0.8-2.6-0.8c-1.3,0-2.5,0.5-3.4,1.4l-3.4,3.4
						c-1.9,1.9-2.2,4.8-0.7,7.1L8,19c0.3,0.5,0.4,1.1,0.2,1.6c-0.1,0.3-0.4,0.9-1.1,1l-2,0.4c-2.4,0.5-4,2.6-4,5.1v3"/>
				</g>
			</g>
		</g>
		<g>
			<g>
				<g>
					<path fill="#FFFFFF" d="M55.8,28.9v3c0,1.1-0.7,1.9-1.9,2.2l-2.8,0.6c-0.6,0.1-1.1,0.6-1.3,1c-0.3,1-0.8,1.9-1.2,2.8
						c-0.3,0.5-0.2,1.1,0,1.6l2,3c0.6,0.9,0.5,2-0.3,2.7l-3.4,3.4c-0.7,0.7-2,0.8-3,0.1l-2.7-1.8c-0.5-0.3-1.1-0.4-1.5-0.1
						c-0.9,0.4-1.8,0.7-2.7,1l-0.2,0.1c-0.8,0.3-1,0.7-1,1L35,53.8c-0.2,1.1-1.2,1.1-1.8,1.1l-3.4,0v3h3c2.7,0,4.6-1.3,5.1-3.6
						l0.3-1.1c0.1-0.6,0.5-2,1-2.2c0.5-0.2,1.1-0.2,1.6,0.1l1.8,1.2c0.8,0.5,1.7,0.8,2.6,0.8c1.3,0,2.5-0.5,3.4-1.4l3.4-3.4
						c1.9-1.9,2.2-4.8,0.7-7.1L52,40c-0.3-0.5-0.4-1.1-0.2-1.6c0.1-0.3,0.4-0.9,1.1-1l2-0.4c2.4-0.5,4-2.6,4-5.1v-3"/>
				</g>
			</g>
			<g>
				<g>
					<path fill="#FFFFFF" d="M1.2,28.9v3c0,2.5,1.6,4.6,4,5.1l2,0.4c0.7,0.1,0.9,0.7,1.1,1C8.5,38.9,8.4,39.5,8,40l-0.9,1.3
						c-1.5,2.2-1.2,5.2,0.7,7.1l3.4,3.4c0.9,0.9,2.1,1.4,3.4,1.4c0.9,0,1.9-0.3,2.6-0.8l1.8-1.2c0.4-0.3,1-0.3,1.6-0.1
						c0.5,0.2,0.9,1.7,1,2.2l0.3,1.1c0.5,2.3,2.4,3.6,5.1,3.6h3v-3l-3.4,0c-0.6,0-1.6,0-1.8-1.1l-0.7-4.3c-0.1-0.3-0.2-0.7-1-1
						l-0.2-0.1c-0.9-0.3-1.8-0.6-2.7-1c-0.5-0.2-1.1-0.2-1.5,0.1l-2.7,1.8c-1.1,0.7-2.3,0.7-3-0.1l-3.4-3.4
						c-0.7-0.7-0.8-1.9-0.3-2.7l2-3c0.3-0.4,0.3-1,0-1.6c-0.5-0.9-0.9-1.9-1.2-2.8c-0.2-0.5-0.7-0.9-1.3-1l-2.8-0.6
						c-1.2-0.2-1.9-1-1.9-2.2v-3"/>
				</g>
			</g>
		</g>
	</g>
	<g>
		<path fill="#FFFFFF" d="M30,15.8c-7.6,0-13.7,6.1-13.7,13.7S22.4,43.2,30,43.2c7.6,0,13.7-6.1,13.7-13.7S37.6,15.8,30,15.8z
			 M30,40.5c-6,0-10.8-4.8-10.8-10.8c0-6,4.8-10.8,10.8-10.8c6,0,10.8,4.8,10.8,10.8C40.8,35.7,36,40.5,30,40.5z"/>
	</g>
</g>
</svg>
