<?xml version="1.0" encoding="utf-8"?>
<!-- Generator: Adobe Illustrator 18.1.1, SVG Export Plug-In . SVG Version: 6.00 Build 0)  -->
<svg version="1.1" id="Layer_1" xmlns="http://www.w3.org/2000/svg" xmlns:xlink="http://www.w3.org/1999/xlink" x="0px" y="0px"
	 viewBox="0 0 35.2 25.2" enable-background="new 0 0 35.2 25.2" xml:space="preserve">
<path fill="#FFFFFF" d="M33,8c-0.4-0.4-0.7-0.7-1-1.1c-0.7-1.1-1.6-2-2.8-2.5c-0.8-0.4-1.5-0.6-1.5-0.6c-1-0.3-1.8-0.8-2.5-1.5
	C23.9,0.8,22,0,20,0c-0.8,0-1.5,0.1-2.2,0.4c-0.3,0.1-0.6,0.2-0.9,0.3c-1.1,0.5-2.3,0.6-3.5,0.2c-0.5-0.2-1.1-0.2-1.6-0.3
	c-0.1,0-0.3,0-0.4,0c-1,0-1.9,0.2-2.8,0.6c-2,0.8-3.4,2.3-4,4.3c-0.1,0.3-0.2,0.6-0.3,1c-0.1,0.5-0.5,1-1,1.3
	C1.4,8.9,0.1,10.9,0,13.1c-0.1,1,0.1,1.9,0.5,2.8c0.2,0.5,0.5,1.2,0.6,2c0.1,1.1,0.5,2.2,1.2,3.2c0.2,0.3,0.4,0.5,0.6,0.8
	c1,1.1,2.3,2,3.7,2.4c0,0,1,0.3,2.2,0.3c0.4,0,0.9,0.1,1.3,0.2c0.6,0.2,1.1,0.3,1.7,0.3c0.4,0,0.7,0,1.1,0c0.5-0.1,1-0.2,1.5-0.5
	c0.7-0.4,1.6-0.4,2.4-0.1c0.5,0.2,1.1,0.3,1.7,0.3c1.2,0.1,2.4-0.2,3.5-0.8c0.7-0.4,1.6-0.5,2.5-0.3c0.5,0.1,0.9,0.2,1.4,0.2
	c0,0,0.2,0,0.4,0c0.9,0,3.3-0.2,5.3-2.1c1.1-1.1,1.8-2.3,2.2-3.6c0.2-0.7,0.4-1.3,0.8-1.9c0.5-0.9,0.8-1.9,0.9-2.9
	C35.3,11.3,34.5,9.4,33,8z M33.4,13.2c0,0.7-0.3,1.4-0.7,2.1c-0.4,0.7-0.6,1.3-0.8,1.9c-0.2,0.8-0.5,1.6-0.5,1.6
	c-0.3,0.5-0.6,1-1,1.5c-1.7,1.7-3.5,1.9-4.2,1.9c-0.3,0-0.4,0-0.4,0c-0.9-0.1-1.8-0.3-2.6-0.8c-0.4-0.2-0.6-0.5-0.6-0.9
	c0-0.4,0.3-0.8,0.6-1c1.8-1,3.1-2.6,3.7-4.6c0.1-0.4,0-0.9-0.4-1.1c-0.5-0.3-1.1,0-1.3,0.5c-0.5,1.6-1.8,2.7-2.5,3.2
	C22,18,21,17.8,20.4,17.2c-0.2-0.2-0.3-0.5-0.3-0.8c0-0.3-0.1-0.5,0-0.8c0.1-0.5,0.2-0.9,0.4-1.4c0.1-0.1,0.1-0.3,0.2-0.4
	c0.2-0.4,0-0.9-0.4-1.1c-0.4-0.2-1,0-1.2,0.4c-0.3,0.8-0.6,1.7-0.6,2.6c-0.1,1.7,0.4,3.3,1.3,4.7c0,0,0.8,0.9,0.5,1.7
	C20,22.7,19.4,23,18.6,23c-0.3,0-0.5,0-0.5,0c-0.3,0-0.6-0.2-0.7-0.5c-0.1-0.3-0.1-0.6,0-0.9c0.1-0.3,0.2-0.7,0-1
	c-0.2-0.2-0.4-0.4-0.7-0.4c-0.3,0-0.6,0.2-0.8,0.4c0,0-1.6,2.5-3.4,2.7c0,0,0,0,0,0c0,0-0.2,0.1-0.6,0.1c-0.4,0-0.9,0-1.5-0.3
	c-0.5-0.2-1.1-0.3-1.6-0.3c-0.9,0-1.5-0.2-1.5-0.2c-1.1-0.3-2.1-0.9-2.9-1.7c-0.2-0.2-0.2-0.5-0.1-0.7c0.1-0.3,0.4-0.4,0.7-0.4
	C5.5,20,6,20,6.6,20.1c0.1,0,0.2,0,0.3,0c1,0,1.9-0.2,2.8-0.6c0.4-0.2,0.7-0.6,0.6-1c-0.1-0.4-0.4-0.7-0.9-0.7c-0.1,0-0.2,0-0.3,0.1
	c0,0-0.5,0.2-1.1,0.4c-0.3,0.1-0.7,0-1-0.3c-0.2-0.2-0.3-0.6-0.2-0.9c0.3-0.8,0.6-1.3,0.6-1.3c0.2-0.2,0.3-0.5,0.5-0.7
	c0.3-0.3,0.3-0.8,0.1-1.1c-0.2-0.3-0.4-0.4-0.7-0.4c-0.3,0-0.5,0.1-0.7,0.3c-0.7,0.8-1.2,1.7-1.5,2.7c-0.1,0.4-0.6,0.7-1,0.7
	c-0.2,0-0.3,0-0.5-0.1c-1.2-0.7-1.9-2.2-1.8-3.9c0.1-2.6,2.4-4.4,5-4.4c0,0,0,0,0,0c0.5,0,0.9-0.4,1-0.8c0,0,0.1-0.6-0.3-0.9
	C7.5,7.1,7.4,7,7.2,7C6.9,6.9,6.7,6.6,6.6,6.3C6.4,6,6.4,5.6,6.6,5.3c0.6-1.1,1.5-1.9,2.7-2.4c0.8-0.3,1.6-0.5,2.4-0.4
	c1.5,0.1,3,0.8,4,2c0.1,0.1,0.2,0.2,0.3,0.3C16,4.9,16,4.9,16,5l0,0c0.1,0.1,0.1,0.2,0.2,0.3c0,0.1,0.1,0.1,0.1,0.2
	c0.1,0.1,0.1,0.3,0.2,0.4c0.9,2.3,0.3,4.8-1.5,6.3c-0.3,0.3-0.5,0.8-0.3,1.1c0.2,0.3,0.4,0.5,0.7,0.5l0,0c0.2,0,0.4-0.1,0.6-0.2
	c0.7-0.6,1.3-1.3,1.8-2.1c0.3-0.6,1-1,1.6-1c0.2,0,0.4,0,0.6,0.1c0.3,0.1,0.5,0.2,0.8,0.2c0.1,0,0.1,0,0.2,0l0,0
	c0.3,0,0.5-0.1,0.7-0.3C21.9,10.3,22,10,22,9.7c0-0.3-0.3-0.6-0.7-0.7l-0.1,0c-0.4-0.1-0.9-0.2-1.3-0.5c-1-0.8-1.7-2.8-1.9-3.6
	l0-0.3c-0.2-1.3,0.6-2.6,1.9-2.8c0,0,2-0.4,4,1.6c0,0,0.2,0.2,0.4,0.4c0.6,0.8,1.5,1.3,2.6,1.5c0.3,0.1,0.6,0.1,0.6,0.1
	c0.3,0.1,0.6,0.2,1,0.4c2,1.1,2.9,3.4,2.3,5.5c-0.1,0.4,0.1,0.9,0.4,1.1c0,0,0.2,0.1,0.4,0.1c0.2,0,0.4-0.1,0.6-0.2
	c0.1-0.1,0.1-0.1,0.2-0.2c0.1-0.2,0.3-0.3,0.5-0.3c0.3,0,0.5,0.2,0.6,0.5C33.4,12.7,33.4,12.9,33.4,13.2z"/>
</svg>
