<?xml version="1.0" encoding="utf-8"?>
<!-- Generator: Adobe Illustrator 18.1.1, SVG Export Plug-In . SVG Version: 6.00 Build 0)  -->
<svg version="1.1" id="Layer_1" xmlns="http://www.w3.org/2000/svg" xmlns:xlink="http://www.w3.org/1999/xlink" x="0px" y="0px"
	 viewBox="0 0 50 50" enable-background="new 0 0 50 50" xml:space="preserve">
<g>
	<path fill="#FFFFFF" d="M31.4,33.2L16.8,18.6c-0.5-0.5-0.5-1.3,0-1.8l0,0c0.5-0.5,1.3-0.5,1.8,0l14.6,14.6c0.5,0.5,0.5,1.3,0,1.8
		l0,0C32.7,33.7,31.9,33.7,31.4,33.2z"/>
	<path fill="#FFFFFF" d="M33.2,18.6L18.6,33.2c-0.5,0.5-1.3,0.5-1.8,0l0,0c-0.5-0.5-0.5-1.3,0-1.8l14.6-14.6c0.5-0.5,1.3-0.5,1.8,0
		l0,0C33.7,17.3,33.7,18.1,33.2,18.6z"/>
</g>
</svg>
